<svg xmlns="http://www.w3.org/2000/svg" width="256" height="256" viewBox="0 0 256 256"><path d="M205.259 13.498a228.777 228.777 0 0 0-154.843 0A65.61 65.61 0 0 0 7 74.987v105.728a65.76 65.76 0 0 0 43.416 61.788 228.789 228.789 0 0 0 154.843 0 66.644 66.644 0 0 0 18.596-10.048c-92.306-16.872-104.978-15.597-125.449-35.918A71.74 71.74 0 0 1 149.133 74.07a71.736 71.736 0 0 1 50.727 21.012c20.321 20.246 19.122 33.068 35.918 124.924a65.384 65.384 0 0 0 12.897-38.992V74.986a65.755 65.755 0 0 0-43.416-61.488Z" fill="#00A651"/><path d="M149.171 175.69c16.524 0 29.919-13.395 29.919-29.919 0-16.523-13.395-29.918-29.919-29.918s-29.919 13.395-29.919 29.918c0 16.524 13.395 29.919 29.919 29.919Z" fill="#00A651"/></svg>
